<?xml version="1.0" encoding="UTF-8"?>
<svg xmlns="http://www.w3.org/2000/svg" xmlns:xlink="http://www.w3.org/1999/xlink" width="2100" height="2101" viewBox="0 0 2100 2101">
<path fill-rule="evenodd" fill="rgb(0%, 0%, 0%)" fill-opacity="1" d="M 1243.859375 943.828125 C 1248.289062 950.648438 1252.96875 958.980469 1255.351562 966.691406 C 1260.601562 983.738281 1252.378906 1004.980469 1244.480469 1008.300781 L 1244.390625 1008.339844 C 1244.390625 1008.339844 1242.660156 1025.960938 1242.199219 1036.839844 C 1241.738281 1047.710938 1246.578125 1047.800781 1246.578125 1047.800781 L 1233.429688 1071.910156 L 1242.199219 1085.058594 L 1244.390625 1109.175781 L 1248.769531 1139.863281 L 1233.429688 1155.210938 C 1255.710938 1188.523438 1310.578125 1381.6875 1303.578125 1402.914062 C 1296.570312 1424.144531 1267.871094 1442.761719 1255.351562 1492.789062 C 1245.898438 1530.570312 1239.859375 1599.464844 1229.039062 1655.007812 C 1218.230469 1710.550781 1244.390625 1762.417969 1244.390625 1762.417969 C 1255.921875 1772.019531 1260.160156 1785.730469 1270.691406 1799.683594 C 1281.230469 1813.636719 1262.261719 1819.34375 1288.230469 1847.910156 C 1314.199219 1876.480469 1318.28125 1904.773438 1301.378906 1918.058594 C 1284.480469 1931.34375 1246.859375 1921.578125 1226.851562 1896.136719 C 1206.851562 1870.695312 1178.628906 1830.371094 1178.628906 1830.371094 C 1178.628906 1830.371094 1153.730469 1824.242188 1141.359375 1810.644531 C 1129 1797.046875 1134.820312 1778.027344 1143.550781 1764.609375 C 1152.289062 1751.195312 1141.121094 1743.015625 1145.738281 1729.535156 C 1150.371094 1716.058594 1163.28125 1725.152344 1163.28125 1725.152344 C 1163.28125 1725.152344 1166.570312 1704.195312 1156.710938 1661.582031 C 1140.941406 1593.480469 1141.359375 1514.710938 1141.359375 1514.710938 C 1141.359375 1514.710938 1130.808594 1532.15625 1079.980469 1556.363281 C 1029.148438 1580.566406 990.105469 1633.085938 990.105469 1633.085938 C 990.105469 1633.085938 995.519531 1640.066406 992.296875 1648.429688 C 987.324219 1661.355469 968.578125 1671.085938 972.570312 1714.191406 C 976.558594 1757.300781 968.578125 1761.164062 957.226562 1771.1875 C 945.871094 1781.210938 926.453125 1753.097656 917.765625 1716.386719 C 909.082031 1679.671875 913.382812 1657.199219 913.382812 1657.199219 C 884.628906 1636.140625 880.503906 1608.972656 880.503906 1608.972656 C 909.394531 1579.128906 914.351562 1584.589844 928.726562 1582.667969 C 943.101562 1580.742188 946.171875 1574.28125 952.839844 1569.515625 C 959.511719 1564.746094 961.609375 1571.707031 961.609375 1571.707031 C 961.609375 1571.707031 988.96875 1558.761719 1036.140625 1494.984375 C 1072.890625 1445.289062 1142.691406 1413.871094 1158.898438 1409.492188 C 1175.109375 1405.113281 1169.859375 1394.148438 1169.859375 1394.148438 C 1156.550781 1378.90625 1139.171875 1354.691406 1139.171875 1354.691406 L 1132.589844 1345.921875 L 1121.628906 1345.921875 L 1121.628906 1352.496094 L 1101.898438 1359.074219 L 1095.328125 1348.113281 L 1086.558594 1354.691406 L 1071.210938 1354.691406 C 1069.621094 1365.953125 1073.410156 1372.226562 1073.410156 1372.226562 L 1058.058594 1376.609375 L 1053.679688 1359.074219 C 1049.429688 1379.976562 1038.328125 1396.339844 1038.328125 1396.339844 L 1018.601562 1394.148438 C 1018.601562 1394.148438 1029.910156 1375.8125 1029.558594 1348.113281 C 1029.210938 1320.414062 1022.988281 1249.46875 1022.988281 1249.46875 L 981.339844 1247.277344 C 981.339844 1247.277344 958.140625 1218.082031 957.226562 1203.4375 C 956.3125 1188.789062 959.417969 1174.9375 959.417969 1174.9375 C 959.417969 1174.9375 951.835938 1137.550781 950.648438 1120.136719 C 949.460938 1102.71875 961.609375 1102.597656 961.609375 1102.597656 C 903.457031 1069.050781 865.007812 1030.410156 856.390625 1017.109375 C 847.773438 1003.800781 827.890625 966.691406 827.890625 966.691406 C 820.886719 917.671875 871.734375 789.128906 871.734375 789.128906 C 871.734375 789.128906 873.410156 729.308594 887.078125 703.640625 C 900.746094 677.96875 911.222656 671.890625 904.613281 657.609375 C 898.007812 643.320312 878.308594 664.179688 878.308594 664.179688 C 878.308594 664.179688 869.207031 694.300781 858.582031 712.410156 C 847.953125 730.519531 823.691406 753.121094 830.085938 721.179688 C 836.476562 689.230469 847.621094 653.21875 847.621094 653.21875 C 847.621094 653.21875 836.144531 649.96875 819.121094 637.878906 C 766.898438 600.78125 792.5 525.789062 814.738281 499.769531 C 832.519531 478.980469 878.140625 475.179688 900.230469 480.050781 C 922.320312 484.910156 917.464844 494.339844 928.726562 491.011719 C 939.992188 487.679688 964.070312 485.828125 965.992188 488.808594 C 972.199219 498.429688 957.128906 508.449219 965.992188 508.539062 C 974.859375 508.628906 980.65625 507.441406 981.339844 512.929688 C 982.019531 518.410156 987.378906 511.480469 992.296875 519.5 C 997.21875 527.53125 1020.800781 530.460938 1020.800781 530.460938 C 1030.800781 521.960938 1032.949219 512.710938 1036.140625 480.050781 C 1039.328125 447.378906 1043.070312 421.871094 1040.519531 403.320312 C 1035.878906 369.421875 1033.769531 338.738281 1040.519531 311.261719 C 1047.28125 283.769531 1049.820312 249.128906 1049.289062 219.191406 C 1048.769531 189.238281 1045.621094 154.601562 1058.058594 124.929688 C 1070.5 95.261719 1079.980469 92.050781 1079.980469 92.050781 C 1095.871094 68.449219 1127.820312 89.03125 1106.289062 98.621094 C 1084.761719 108.210938 1078.101562 145.75 1086.558594 144.660156 C 1095.019531 143.558594 1101.210938 123.339844 1110.671875 131.5 C 1120.140625 139.671875 1104.710938 149.25 1099.710938 199.460938 C 1094.710938 249.671875 1122.910156 304.011719 1117.25 357.289062 C 1111.578125 410.570312 1101.210938 402.738281 1104.089844 458.121094 C 1106.980469 513.511719 1101.210938 548.390625 1086.558594 587.460938 C 1071.910156 626.519531 1121.511719 668.828125 1147.941406 710.210938 C 1174.359375 751.601562 1164.230469 754.261719 1187.390625 811.050781 C 1210.558594 867.839844 1207.121094 966.691406 1207.121094 966.691406 L 1216.410156 977.300781 C 1219.488281 960.648438 1233.429688 929.421875 1233.429688 929.421875 L 1150.128906 260.839844 L 1161.089844 258.640625 Z M 933.113281 868.050781 C 933.113281 868.050781 920.046875 907.351562 906.808594 927.230469 C 906.808594 927.230469 932.890625 1014.398438 1001.070312 1069.71875 C 1001.070312 1069.71875 999.371094 1058.839844 1007.640625 1047.800781 C 1015.910156 1036.75 1018.601562 1028.070312 1018.601562 1028.070312 L 1005.449219 1012.71875 L 1009.839844 995.191406 C 1009.839844 995.191406 967.339844 909.640625 941.878906 885.578125 C 941.878906 885.578125 937.703125 872.78125 933.113281 868.050781 Z M 1213.699219 1023.679688 C 1213.699219 1023.679688 1212.089844 1027.621094 1211.289062 1032.609375 C 1210.488281 1037.589844 1210.488281 1043.621094 1213.699219 1047.800781 C 1220.128906 1056.148438 1229.828125 1034.820312 1213.699219 1023.679688 Z M 1239.140625 1002.558594 C 1248.808594 991.910156 1245.589844 971.089844 1240 973.269531 C 1236.339844 974.691406 1229.949219 982.71875 1225.980469 988.089844 L 1239.140625 1002.558594 "/>
<path fill-rule="evenodd" fill="rgb(0%, 0%, 0%)" fill-opacity="1" d="M 923 0.128906 L 989 53 L 1050 103 L 1064.96875 110.390625 L 1085.96875 144.671875 L 1123 211 L 1150.128906 260.839844 L 1163.660156 279.910156 L 1231 270 C 1231 270 1295.148438 230.828125 1311.53125 202 C 1327.921875 173.160156 1227.890625 201.921875 1311.53125 170 C 1395.171875 138.070312 1334.328125 166.710938 1413 129 C 1491.671875 91.289062 1397.371094 120.679688 1503 81.128906 C 1608.628906 41.578125 1580.128906 42.269531 1609 39 C 1637.871094 35.730469 1749 0.128906 1749 0.128906 L 923 0.128906 "/>
</svg>
